# xmcd CD database file
#
# Track frame offsets:
#	150
#	21200
#	55160
#	87517
#	112762
#	143800
#	165120
#	195897
#	224662
#	251245
#	283385
#
# Disc length: 4055 seconds
#
# Revision: 3
# Processed by: cddbd v1.5.2PL0 Copyright (c) Steve Scherf et al.
# Submitted via: CDex 1.70beta2
#
DISCID=9a0fd50b
DTITLE=Eddie Daniels - Under the Influence
DYEAR=1993
DGENRE=Jazz
TTITLE0=Slam Dunk
TTITLE1=Mr. Cool (for Stan)
TTITLE2=Waltz for Bill (Evans)
TTITLE3=Meus Melhores Momentos
TTITLE4=Heartland
TTITLE5=I Hear a Rhapsody
TTITLE6=Weaver of Dreams
TTITLE7=Coyote Waits
TTITLE8=Rio Grande
TTITLE9=I Fall In Love Too Easily
TTITLE10=Five
EXTD=Eddie Daniels, tenor sax, clarinet\nAlan Pasqua, piano (synthesizer on #4]\nMike Formanek, bass\nPeter Erskine, drums and percussion YEAR: 1993
EXTT0=Eddie Daniels\n
EXTT1=Eddie Daniels\n
EXTT2=Eddie Daniels\n
EXTT3=Erineu Edson Maransi\n
EXTT4=Alan Pasqua\n
EXTT5=George Fragos-Jack Baker-Dick \nGasparre\n
EXTT6=Victor Young- Jack Elliot\n
EXTT7=Eddie Daniels\n
EXTT8=Alan Pasqua\n
EXTT9=Sammy Cahn-Julie Styne\n
EXTT10=Bill Evans\n
PLAYORDER=
